# xmcd
#
# Track frame offsets:
#	150
#	11461
#	21363
#	32331
#	42302
#	52690
#	62735
#	75249
#	84466
#	97446
#	107744
#	116616
#	126348
#	136866
#	145744
#
# Disc length: 2090 seconds
#
# Revision: 1
# Processed by: cddbd v1.5.2PL0 Copyright (c) Steve Scherf et al.
# Submitted via: audiograbber 1.83.01
#
DISCID=bc08280f
DTITLE=Johnny Cash - More of Old Golden Throat
DYEAR=1969
DGENRE=Country
TTITLE0=Bottom of A Mountain
TTITLE1=You Beat All I Ever Saw
TTITLE2=Put The Sugar To Bed
TTITLE3=Blues For Two - The Tennessee Two and Friend (Instrumental)
TTITLE4=Girl From Saskatoon
TTITLE5=Time and Time Again
TTITLE6=Jeri And Nina's Melody - The Tennessee Two and Friend (Instrumental)
TTITLE7=Honky Tonk Girl
TTITLE8=Locomotive Man
TTITLE9=Bandana - The Tennessee Two and Friend (Instrumental)
TTITLE10=Second Honeymoon
TTITLE11=I'll Remember You
TTITLE12=Wabash Blues - The Tennessee Two and Friend (Instrumental)
TTITLE13=Lorena
TTITLE14=Roll Call
EXTD=
EXTT0=
EXTT1=
EXTT2=
EXTT3=
EXTT4=
EXTT5=
EXTT6=
EXTT7=
EXTT8=
EXTT9=
EXTT10=
EXTT11=
EXTT12=
EXTT13=
EXTT14=
PLAYORDER=
